<?xml version="1.0" standalone="no"?>
<!DOCTYPE svg PUBLIC "-//W3C//DTD SVG 20010904//EN"
 "http://www.w3.org/TR/2001/REC-SVG-20010904/DTD/svg10.dtd">
<svg version="1.0" xmlns="http://www.w3.org/2000/svg"
 width="100pt" height="50t" viewBox="0 0 500.000000 500.000000"
 preserveAspectRatio="xMidYMid meet">

<g transform="translate(0.000000,500.000000) scale(0.100000,-0.100000)"
fill="#000000" stroke="none">
<path d="M2109 4036 c-13 -13 -61 -95 -107 -182 -45 -88 -105 -202 -133 -254
-106 -199 -159 -308 -159 -326 0 -11 7 -29 15 -41 8 -12 164 -100 347 -196
183 -96 450 -237 593 -312 345 -183 350 -185 375 -185 12 0 33 12 47 28 41 43
393 722 393 757 0 30 -23 75 -39 75 -4 0 -53 24 -107 53 -54 30 -142 76 -194
104 -52 28 -287 152 -522 277 -272 144 -438 226 -456 226 -18 0 -39 -10 -53
-24z m196 -210 c95 -40 99 -192 6 -241 -120 -62 -250 69 -181 183 39 64 106
86 175 58z m-216 -343 c33 -19 41 -50 15 -60 -24 -9 -84 23 -84 45 0 37 22 41
69 15z m156 -84 c59 -33 63 -39 39 -63 -14 -14 -21 -13 -75 14 -39 20 -59 36
-59 48 0 41 23 42 95 1z m-124 -96 c88 -47 109 -62 107 -78 -3 -22 -41 -33
-61 -17 -7 5 -54 31 -104 57 -64 32 -93 52 -93 64 0 45 21 42 151 -26z m294 6
c65 -37 68 -41 51 -65 -14 -18 -16 -18 -67 6 -69 33 -82 46 -69 71 14 25 21
24 85 -12z m185 -96 c86 -48 58 -94 -31 -52 -57 26 -74 43 -65 64 8 22 40 18
96 -12z m151 -80 c32 -19 38 -50 13 -60 -18 -7 -84 22 -84 36 0 42 26 51 71
24z m265 -97 c97 -52 120 -68 122 -88 4 -30 -98 -227 -127 -246 -17 -12 -34
-6 -145 54 -95 51 -126 72 -126 87 0 39 122 257 143 257 8 0 67 -29 133 -64z"/>
<path d="M1529 3591 l-29 -29 0 -410 c0 -259 4 -420 10 -439 6 -17 21 -35 33
-42 16 -8 166 -11 561 -9 l539 3 -125 68 -126 67 -406 0 c-475 0 -446 -7 -446
103 0 34 5 69 10 77 8 12 48 16 230 20 l220 5 -163 85 c-89 47 -170 93 -179
103 -30 29 -22 81 27 173 25 46 65 122 91 169 l45 85 -131 0 -132 0 -29 -29z"/>
<path d="M3050 1950 c-50 -12 -80 -51 -80 -104 0 -47 26 -79 90 -111 74 -37
91 -76 44 -97 -24 -11 -67 -5 -126 17 -15 6 -18 1 -18 -29 0 -45 23 -56 117
-56 61 0 67 2 99 34 64 64 38 135 -71 194 -52 28 -65 52 -44 79 13 15 50 14
104 -2 16 -5 23 0 32 24 10 29 10 31 -21 40 -53 16 -90 20 -126 11z"/>
<path d="M3454 1950 c-82 -19 -124 -85 -124 -194 0 -125 59 -186 181 -186 107
0 162 51 175 160 18 155 -88 255 -232 220z m113 -84 c25 -21 28 -32 31 -97 3
-64 1 -78 -17 -101 -44 -56 -137 -42 -160 23 -25 72 -3 171 41 189 40 15 76
11 105 -14z"/>
<path d="M549 1933 c0 -10 0 -76 1 -147 1 -142 10 -170 60 -200 44 -25 148
-22 191 7 48 32 58 71 58 225 l1 132 -39 0 -39 0 -4 -141 c-3 -136 -4 -142
-28 -161 -18 -15 -33 -18 -60 -14 -55 9 -60 23 -60 178 l0 138 -40 0 c-31 0
-40 -4 -41 -17z"/>
<path d="M1010 1760 l0 -190 39 0 39 0 -4 141 c-2 78 -1 139 3 135 3 -3 40
-65 82 -138 l76 -133 53 -3 52 -3 0 190 0 191 -35 0 -35 0 0 -142 0 -143 -82
143 -82 142 -53 0 -53 0 0 -190z"/>
<path d="M1510 1760 l0 -190 40 0 40 0 0 190 0 190 -40 0 -40 0 0 -190z"/>
<path d="M1750 1760 l0 -190 90 0 c138 0 190 31 190 113 0 30 -7 45 -29 66
l-28 26 23 18 c17 13 24 28 24 53 0 79 -43 104 -180 104 l-90 0 0 -190z m184
98 c19 -30 -4 -53 -58 -56 l-46 -3 0 41 0 41 46 -3 c31 -2 51 -9 58 -20z m4
-142 c12 -12 14 -22 6 -43 -8 -25 -15 -28 -62 -31 l-52 -3 0 44 c0 24 3 47 8
51 11 12 83 -1 100 -18z"/>
<path d="M2170 1760 l0 -190 40 0 40 0 0 190 0 190 -40 0 -40 0 0 -190z"/>
<path d="M2380 1915 l0 -35 50 0 50 0 0 -155 0 -155 40 0 40 0 0 155 0 155 50
0 50 0 0 35 0 35 -140 0 -140 0 0 -35z"/>
<path d="M3830 1760 l0 -190 40 0 40 0 0 75 0 75 65 0 65 0 0 35 0 35 -65 0
-65 0 0 45 0 44 68 3 67 3 3 33 3 32 -110 0 -111 0 0 -190z"/>
<path d="M4150 1915 l0 -35 50 0 50 0 0 -155 0 -155 40 0 c31 0 40 4 40 18 1
9 1 79 0 155 l-1 137 56 0 55 0 0 35 0 35 -145 0 -145 0 0 -35z"/>
<path d="M510 1035 l0 -145 80 0 c64 0 80 3 80 15 0 12 -14 15 -66 15 l-65 0
3 53 3 52 58 3 c31 2 57 7 57 12 0 5 -26 10 -57 12 l-58 3 0 45 0 45 63 3 c93
4 77 26 -21 30 l-77 3 0 -146z"/>
<path d="M1235 1162 c-41 -26 -52 -41 -63 -90 -14 -61 2 -126 40 -157 27 -23
38 -26 91 -23 37 2 62 8 65 16 3 9 -13 12 -55 12 -74 0 -103 25 -110 94 -11
91 39 144 123 132 49 -6 68 9 29 24 -40 15 -87 12 -120 -8z"/>
<path d="M1643 1165 c-53 -23 -79 -97 -62 -177 15 -68 53 -98 124 -98 69 0
107 30 124 96 34 134 -67 231 -186 179z m123 -38 c21 -18 28 -35 32 -75 9 -99
-41 -153 -122 -131 -48 13 -70 60 -63 133 5 61 39 96 92 96 21 0 44 -9 61 -23z"/>
<path d="M2060 1035 c0 -122 2 -145 15 -145 12 0 15 21 16 123 l0 122 46 -123
c34 -91 50 -122 62 -120 9 2 32 48 61 123 l45 119 3 -122 c2 -99 5 -122 17
-122 13 0 15 24 15 145 l0 145 -24 0 c-21 0 -28 -13 -67 -115 -24 -63 -46
-115 -50 -115 -3 0 -25 52 -49 115 -38 103 -45 115 -66 115 l-24 0 0 -145z"/>
<path d="M2580 1036 c0 -123 2 -146 15 -146 12 0 15 20 16 118 l0 117 46 -117
c25 -65 52 -118 59 -118 7 0 34 55 61 123 l48 122 3 -122 c2 -101 5 -123 18
-123 12 0 14 21 12 143 -3 137 -4 142 -24 145 -19 3 -28 -12 -69 -119 l-48
-122 -46 119 c-38 98 -50 120 -69 122 -22 3 -22 3 -22 -142z"/>
<path d="M3100 1035 l0 -145 80 0 c64 0 80 3 80 15 0 12 -14 15 -65 15 l-65 0
0 54 c0 53 1 55 28 54 62 -1 92 3 92 12 0 6 -27 10 -60 10 l-60 0 0 50 0 50
66 0 c48 0 65 3 62 13 -3 8 -31 13 -81 15 l-77 3 0 -146z"/>
<path d="M3480 1036 c0 -123 2 -146 15 -146 12 0 15 13 15 60 0 60 0 60 30 60
26 0 34 -8 61 -56 30 -53 53 -74 66 -61 3 3 -11 32 -30 63 l-35 58 29 27 c35
33 37 68 7 104 -19 21 -35 27 -90 32 l-68 6 0 -147z m114 104 c21 -8 26 -16
26 -43 0 -44 -15 -57 -67 -57 l-43 0 0 55 c0 54 0 55 29 55 16 0 41 -4 55 -10z"/>
<path d="M3941 1162 c-89 -45 -95 -213 -10 -257 39 -21 139 -20 139 0 0 11
-13 15 -54 15 -65 0 -93 19 -105 73 -12 51 3 107 35 136 24 20 34 23 81 17 42
-5 53 -3 53 8 0 29 -88 35 -139 8z"/>
<path d="M4297 1173 c-4 -3 -7 -69 -7 -145 l0 -138 80 0 c64 0 80 3 80 15 0
12 -13 15 -60 15 l-60 0 0 54 0 54 33 0 c66 -1 87 2 87 12 0 6 -27 10 -60 10
l-60 0 0 50 0 50 60 0 c47 0 60 3 60 15 0 12 -15 15 -73 15 -41 0 -77 -3 -80
-7z"/>
<path d="M870 994 c0 -12 10 -14 47 -12 66 4 70 28 4 28 -39 0 -51 -4 -51 -16z"/>
</g>
</svg>
